solid JSxCAD
facet normal 0.8660250052184559 0.5000006903358969 0
outer loop
vertex -1.05 -1.81865 0
vertex -2.1 0 20
vertex -1.05 -1.81865 20
endloop
endfacet
facet normal 0.866025005218456 0.5000006903358967 0
outer loop
vertex -2.1 0 20
vertex -1.05 -1.81865 0
vertex -2.1 0 0
endloop
endfacet
facet normal 0.866025005218456 -0.5000006903358967 0
outer loop
vertex -2.1 0 0
vertex -1.05 1.81865 20
vertex -2.1 0 20
endloop
endfacet
facet normal 0.8660250052184559 -0.5000006903358969 0
outer loop
vertex -1.05 1.81865 20
vertex -2.1 0 0
vertex -1.05 1.81865 0
endloop
endfacet
facet normal 0 -1 0
outer loop
vertex -1.05 1.81865 20
vertex 1.05 1.81865 0
vertex 1.05 1.81865 20
endloop
endfacet
facet normal 0 -1 0
outer loop
vertex 1.05 1.81865 0
vertex -1.05 1.81865 20
vertex -1.05 1.81865 0
endloop
endfacet
facet normal -0.8660250052184559 -0.5000006903358969 0
outer loop
vertex 1.05 1.81865 0
vertex 2.1 0 20
vertex 1.05 1.81865 20
endloop
endfacet
facet normal -0.866025005218456 -0.5000006903358967 0
outer loop
vertex 2.1 0 20
vertex 1.05 1.81865 0
vertex 2.1 0 0
endloop
endfacet
facet normal -0.866025005218456 0.5000006903358967 0
outer loop
vertex 2.1 0 0
vertex 1.05 -1.81865 20
vertex 2.1 0 20
endloop
endfacet
facet normal -0.8660250052184559 0.5000006903358969 0
outer loop
vertex 1.05 -1.81865 20
vertex 2.1 0 0
vertex 1.05 -1.81865 0
endloop
endfacet
facet normal 0 1 0
outer loop
vertex -1.05 -1.81865 0
vertex 1.05 -1.81865 20
vertex 1.05 -1.81865 0
endloop
endfacet
facet normal 0 1 0
outer loop
vertex 1.05 -1.81865 20
vertex -1.05 -1.81865 0
vertex -1.05 -1.81865 20
endloop
endfacet
facet normal -0.30901559764627917 -0.9510569701186744 0
outer loop
vertex -2.5 -4.33013 0
vertex -0.52264 -4.97261 20
vertex -2.5 -4.33013 20
endloop
endfacet
facet normal -0.3090155976462792 -0.9510569701186743 0
outer loop
vertex -0.52264 -4.97261 20
vertex -2.5 -4.33013 0
vertex -0.52264 -4.97261 0
endloop
endfacet
facet normal -0.6691315942802627 -0.7431439359477773 0
outer loop
vertex -4.04508 -2.93893 0
vertex -2.5 -4.33013 20
vertex -4.04508 -2.93893 20
endloop
endfacet
facet normal -0.6691315942802624 -0.7431439359477776 0
outer loop
vertex -2.5 -4.33013 20
vertex -4.04508 -2.93893 0
vertex -2.5 -4.33013 0
endloop
endfacet
facet normal -0.9135443867754874 -0.40673904827419594 0
outer loop
vertex -4.89074 -1.03956 0
vertex -4.04508 -2.93893 20
vertex -4.89074 -1.03956 20
endloop
endfacet
facet normal -0.9135425020402012 -0.40674328140228355 -4.817060869467557e-7
outer loop
vertex -4.54386 -1.81865 0
vertex -4.04508 -2.93893 20
vertex -4.89074 -1.03956 0
endloop
endfacet
facet normal -0.9135456974929089 -0.40673610436276086 0
outer loop
vertex -4.04508 -2.93893 20
vertex -4.54386 -1.81865 0
vertex -4.04508 -2.93893 0
endloop
endfacet
facet normal -1 0 0
outer loop
vertex -4.89074 0 0
vertex -4.89074 1.03956 20
vertex -4.89074 1.03956 0
endloop
endfacet
facet normal -1 0 0
outer loop
vertex -4.89074 -1.03956 0
vertex -4.89074 1.03956 20
vertex -4.89074 0 0
endloop
endfacet
facet normal -1 0 0
outer loop
vertex -4.89074 1.03956 20
vertex -4.89074 -1.03956 0
vertex -4.89074 -1.03956 20
endloop
endfacet
facet normal -0.9135443867754874 0.40673904827419594 0
outer loop
vertex -4.04508 2.93893 0
vertex -4.89074 1.03956 20
vertex -4.04508 2.93893 20
endloop
endfacet
facet normal -0.9135456974928576 0.40673610436273805 -3.3499991788057787e-7
outer loop
vertex -4.54386 1.81865 0
vertex -4.89074 1.03956 20
vertex -4.04508 2.93893 0
endloop
endfacet
facet normal -0.9135425020403071 0.40674328140233074 0
outer loop
vertex -4.89074 1.03956 20
vertex -4.54386 1.81865 0
vertex -4.89074 1.03956 0
endloop
endfacet
facet normal -0.6691315942802624 0.7431439359477776 0
outer loop
vertex -2.5 4.33013 0
vertex -4.04508 2.93893 20
vertex -2.5 4.33013 20
endloop
endfacet
facet normal -0.6691315942802627 0.7431439359477773 0
outer loop
vertex -4.04508 2.93893 20
vertex -2.5 4.33013 0
vertex -4.04508 2.93893 0
endloop
endfacet
facet normal 0.1045303046154162 -0.9945217018331014 0
outer loop
vertex -0.52264 -4.97261 20
vertex 1.54508 -4.75528 0
vertex 1.54508 -4.75528 20
endloop
endfacet
facet normal 0.10453030461541622 -0.9945217018331015 0
outer loop
vertex 1.54508 -4.75528 0
vertex -0.52264 -4.97261 20
vertex -0.52264 -4.97261 0
endloop
endfacet
facet normal 0 0 1
outer loop
vertex 2.1 4.4349 20
vertex 4.56773 2.03368 20
vertex 3.34565 3.71572 20
endloop
endfacet
facet normal -1.2984903517980182e-15 0 1
outer loop
vertex 2.1 0 20
vertex 4.56773 2.03368 20
vertex 2.1 4.4349 20
endloop
endfacet
facet normal 0 0 0.9999999999999999
outer loop
vertex 2.1 0 20
vertex 5 0 20
vertex 4.56773 2.03368 20
endloop
endfacet
facet normal 0 0 0.9999999999999999
outer loop
vertex 2.1 0 20
vertex 4.56773 -2.03368 20
vertex 5 0 20
endloop
endfacet
facet normal 0 0 1
outer loop
vertex 2.1 0 20
vertex 3.34565 -3.71572 20
vertex 4.56773 -2.03368 20
endloop
endfacet
facet normal -5.144821732978803e-15 0 1
outer loop
vertex 3.34565 -3.71572 20
vertex 2.1 0 20
vertex 2.1 -4.4349 20
endloop
endfacet
facet normal 6.103473515890519e-15 0 1
outer loop
vertex 1.05 -1.81865 20
vertex 2.1 -4.4349 20
vertex 2.1 0 20
endloop
endfacet
facet normal 0 0 1
outer loop
vertex 1.05 -1.81865 20
vertex 1.54508 -4.75528 20
vertex 2.1 -4.4349 20
endloop
endfacet
facet normal -9.604325117377892e-15 0 0.9999999999999999
outer loop
vertex 1.54508 -4.75528 20
vertex 1.05 -1.81865 20
vertex 1.05 -4.80732 20
endloop
endfacet
facet normal 0 0 1
outer loop
vertex -4.04508 2.93893 20
vertex -2.1 4.46009 20
vertex -2.5 4.33013 20
endloop
endfacet
facet normal 0 0 1
outer loop
vertex -4.89074 1.03956 20
vertex -2.1 4.46009 20
vertex -4.04508 2.93893 20
endloop
endfacet
facet normal 0 0 1
outer loop
vertex -4.89074 1.03956 20
vertex -2.1 0 20
vertex -2.1 4.46009 20
endloop
endfacet
facet normal 0 0 1
outer loop
vertex -4.89074 -1.03956 20
vertex -2.1 0 20
vertex -4.89074 1.03956 20
endloop
endfacet
facet normal 1.1497897803703684e-15 0 1
outer loop
vertex -4.04508 -2.93893 20
vertex -2.1 0 20
vertex -4.89074 -1.03956 20
endloop
endfacet
facet normal -1.960962522831196e-15 0 1
outer loop
vertex -2.5 -4.33013 20
vertex -2.1 0 20
vertex -4.04508 -2.93893 20
endloop
endfacet
facet normal 0 0 0.9999999999999999
outer loop
vertex -2.1 0 20
vertex -2.5 -4.33013 20
vertex -2.1 -4.46009 20
endloop
endfacet
facet normal -4.537685901881717e-15 0 1
outer loop
vertex -2.1 4.46009 20
vertex -1.05 1.81865 20
vertex -1.05 4.80126 20
endloop
endfacet
facet normal 0 0 1
outer loop
vertex -1.05 1.81865 20
vertex -2.1 4.46009 20
vertex -2.1 0 20
endloop
endfacet
facet normal 0 0 1
outer loop
vertex 1.05 4.80732 20
vertex 2.1 4.4349 20
vertex 1.54508 4.75528 20
endloop
endfacet
facet normal -4.528485027725187e-15 0 1
outer loop
vertex 1.05 1.81865 20
vertex 2.1 4.4349 20
vertex 1.05 4.80732 20
endloop
endfacet
facet normal 6.103473515890519e-15 0 1
outer loop
vertex 2.1 4.4349 20
vertex 1.05 1.81865 20
vertex 2.1 0 20
endloop
endfacet
facet normal 0 0 1
outer loop
vertex -1.05 4.80126 20
vertex 1.05 4.80732 20
vertex -0.52264 4.97261 20
endloop
endfacet
facet normal 2.2688429509408585e-15 0 1
outer loop
vertex -1.05 1.81865 20
vertex 1.05 4.80732 20
vertex -1.05 4.80126 20
endloop
endfacet
facet normal 0 0 1
outer loop
vertex 1.05 4.80732 20
vertex -1.05 1.81865 20
vertex 1.05 1.81865 20
endloop
endfacet
facet normal 0 0 1
outer loop
vertex -2.1 -4.46009 20
vertex -1.05 -1.81865 20
vertex -2.1 0 20
endloop
endfacet
facet normal -4.537685901881717e-15 0 1
outer loop
vertex -1.05 -1.81865 20
vertex -2.1 -4.46009 20
vertex -1.05 -4.80126 20
endloop
endfacet
facet normal 0 0 1
outer loop
vertex -1.05 -4.80126 20
vertex 1.05 -1.81865 20
vertex -1.05 -1.81865 20
endloop
endfacet
facet normal 2.2642425138625926e-15 0 1
outer loop
vertex -1.05 -4.80126 20
vertex 1.05 -4.80732 20
vertex 1.05 -1.81865 20
endloop
endfacet
facet normal 0 0 1
outer loop
vertex 1.05 -4.80732 20
vertex -1.05 -4.80126 20
vertex -0.52264 -4.97261 20
endloop
endfacet
facet normal 0 0 -1
outer loop
vertex -2.1 0 0
vertex -4.54386 1.81865 0
vertex -1.05 1.81865 0
endloop
endfacet
facet normal 0 0 -1
outer loop
vertex -4.89074 0 0
vertex -4.54386 1.81865 0
vertex -2.1 0 0
endloop
endfacet
facet normal 0 0 -1
outer loop
vertex -4.54386 1.81865 0
vertex -4.89074 0 0
vertex -4.89074 1.03956 0
endloop
endfacet
facet normal 0 0 -1
outer loop
vertex -4.54386 -1.81865 0
vertex -2.1 0 0
vertex -1.05 -1.81865 0
endloop
endfacet
facet normal 0 0 -1
outer loop
vertex -4.89074 -1.03956 0
vertex -2.1 0 0
vertex -4.54386 -1.81865 0
endloop
endfacet
facet normal 0 0 -1
outer loop
vertex -2.1 0 0
vertex -4.89074 -1.03956 0
vertex -4.89074 0 0
endloop
endfacet
facet normal 0 0 -1
outer loop
vertex 4.61343 -1.81865 0
vertex 2.1 0 0
vertex 5 0 0
endloop
endfacet
facet normal 0 0 -0.9999999999999999
outer loop
vertex 2.1 0 0
vertex 4.61343 -1.81865 0
vertex 1.05 -1.81865 0
endloop
endfacet
facet normal 0 0 -1
outer loop
vertex 3.34565 -3.71572 0
vertex 4.61343 -1.81865 0
vertex 4.56773 -2.03368 0
endloop
endfacet
facet normal 0 0 -1
outer loop
vertex 1.54508 -4.75528 0
vertex 4.61343 -1.81865 0
vertex 3.34565 -3.71572 0
endloop
endfacet
facet normal 0 0 -1
outer loop
vertex 1.54508 -4.75528 0
vertex 1.05 -1.81865 0
vertex 4.61343 -1.81865 0
endloop
endfacet
facet normal 0 0 -1
outer loop
vertex -0.52264 -4.97261 0
vertex 1.05 -1.81865 0
vertex 1.54508 -4.75528 0
endloop
endfacet
facet normal 0 0 -1
outer loop
vertex -0.52264 -4.97261 0
vertex -1.05 -1.81865 0
vertex 1.05 -1.81865 0
endloop
endfacet
facet normal 0 0 -1
outer loop
vertex -2.5 -4.33013 0
vertex -1.05 -1.81865 0
vertex -0.52264 -4.97261 0
endloop
endfacet
facet normal 0 0 -1
outer loop
vertex -4.04508 -2.93893 0
vertex -1.05 -1.81865 0
vertex -2.5 -4.33013 0
endloop
endfacet
facet normal 0 0 -1
outer loop
vertex -1.05 -1.81865 0
vertex -4.04508 -2.93893 0
vertex -4.54386 -1.81865 0
endloop
endfacet
facet normal 0 0 -1
outer loop
vertex 4.61343 1.81865 0
vertex 3.34565 3.71572 0
vertex 4.56773 2.03368 0
endloop
endfacet
facet normal 0 0 -1
outer loop
vertex 4.61343 1.81865 0
vertex 1.54508 4.75528 0
vertex 3.34565 3.71572 0
endloop
endfacet
facet normal 0 0 -1
outer loop
vertex 1.05 1.81865 0
vertex 1.54508 4.75528 0
vertex 4.61343 1.81865 0
endloop
endfacet
facet normal 0 0 -1
outer loop
vertex 1.05 1.81865 0
vertex -0.52264 4.97261 0
vertex 1.54508 4.75528 0
endloop
endfacet
facet normal 0 0 -1
outer loop
vertex -1.05 1.81865 0
vertex -0.52264 4.97261 0
vertex 1.05 1.81865 0
endloop
endfacet
facet normal 0 0 -0.9999999999999999
outer loop
vertex -1.05 1.81865 0
vertex -2.5 4.33013 0
vertex -0.52264 4.97261 0
endloop
endfacet
facet normal 0 0 -1
outer loop
vertex -1.05 1.81865 0
vertex -4.04508 2.93893 0
vertex -2.5 4.33013 0
endloop
endfacet
facet normal 0 0 -1
outer loop
vertex -4.04508 2.93893 0
vertex -1.05 1.81865 0
vertex -4.54386 1.81865 0
endloop
endfacet
facet normal 0 0 -1
outer loop
vertex 2.1 0 0
vertex 4.61343 1.81865 0
vertex 5 0 0
endloop
endfacet
facet normal 0 0 -0.9999999999999999
outer loop
vertex 4.61343 1.81865 0
vertex 2.1 0 0
vertex 1.05 1.81865 0
endloop
endfacet
facet normal -0.30901559764627917 0.9510569701186744 0
outer loop
vertex -0.52264 4.97261 20
vertex -2.5 4.33013 0
vertex -2.5 4.33013 20
endloop
endfacet
facet normal -0.3090155976462792 0.9510569701186743 0
outer loop
vertex -2.5 4.33013 0
vertex -0.52264 4.97261 20
vertex -0.52264 4.97261 0
endloop
endfacet
facet normal 0.1045303046154162 0.9945217018331014 0
outer loop
vertex 1.54508 4.75528 0
vertex -0.52264 4.97261 20
vertex 1.54508 4.75528 20
endloop
endfacet
facet normal 0.10453030461541622 0.9945217018331015 0
outer loop
vertex -0.52264 4.97261 20
vertex 1.54508 4.75528 0
vertex -0.52264 4.97261 0
endloop
endfacet
facet normal 0.5000001536005656 0.8660253151030924 0
outer loop
vertex 3.34565 3.71572 0
vertex 1.54508 4.75528 20
vertex 3.34565 3.71572 20
endloop
endfacet
facet normal 0.5000001536005659 0.8660253151030924 0
outer loop
vertex 1.54508 4.75528 20
vertex 3.34565 3.71572 0
vertex 1.54508 4.75528 0
endloop
endfacet
facet normal 0.809015529172314 0.587787268965602 0
outer loop
vertex 4.56773 2.03368 0
vertex 3.34565 3.71572 20
vertex 4.56773 2.03368 20
endloop
endfacet
facet normal 0.8090155291723137 0.5877872689656024 0
outer loop
vertex 3.34565 3.71572 20
vertex 4.56773 2.03368 0
vertex 3.34565 3.71572 0
endloop
endfacet
facet normal 0.9781477991350201 0.20791075741124213 0
outer loop
vertex 5 0 0
vertex 4.56773 2.03368 20
vertex 5 0 20
endloop
endfacet
facet normal 0.9781477991350201 0.20791075741124213 0
outer loop
vertex 5 0 0
vertex 4.56773 2.03368 0
vertex 4.56773 2.03368 20
endloop
endfacet
facet normal 0 0 -1
outer loop
vertex 4.56773 2.03368 0
vertex 5 0 0
vertex 4.61343 1.81865 0
endloop
endfacet
facet normal 0.9781477991350201 -0.20791075741124213 0
outer loop
vertex 4.56773 -2.03368 0
vertex 5 0 20
vertex 4.56773 -2.03368 20
endloop
endfacet
facet normal 0.9781477991350201 -0.20791075741124213 0
outer loop
vertex 5 0 20
vertex 4.56773 -2.03368 0
vertex 5 0 0
endloop
endfacet
facet normal 0.809015529172314 -0.587787268965602 0
outer loop
vertex 3.34565 -3.71572 20
vertex 4.56773 -2.03368 0
vertex 4.56773 -2.03368 20
endloop
endfacet
facet normal 0.8090155291723137 -0.5877872689656024 0
outer loop
vertex 4.56773 -2.03368 0
vertex 3.34565 -3.71572 20
vertex 3.34565 -3.71572 0
endloop
endfacet
facet normal 0.5000001536005659 -0.8660253151030924 0
outer loop
vertex 1.54508 -4.75528 0
vertex 3.34565 -3.71572 20
vertex 1.54508 -4.75528 20
endloop
endfacet
facet normal 0.5000001536005656 -0.8660253151030924 0
outer loop
vertex 3.34565 -3.71572 20
vertex 1.54508 -4.75528 0
vertex 3.34565 -3.71572 0
endloop
endfacet
endsolid JSxCAD
