<?xml version="1.0" encoding="UTF-8"?>
<!-- Generated by jsxcad -->
<!DOCTYPE svg PUBLIC "-//W3C//DTD SVG 1.1 Tiny//EN" "http://www.w3.org/Graphics/SVG/1.1/DTD/svg11-tiny.dtd">
<svg viewBox="-250 -250 500 500" width="500" height="500" xmlns="http://www.w3.org/2000/svg"><path d="M-72.16015929932804,-151.6418376197513L40.68538779573338,83.56687728547136L46.344118968810854,80.83510323793374z" style="fill:rgb(162,50,222)"/><path d="M-79.16476400770954,-148.20361492211745L35.50273545365114,87.06525033042551L40.68538779573338,83.56687728547136z" style="fill:rgb(183,62,221)"/><path d="M-64.9429122622178,-154.26015195836382L46.344118968810854,80.83510323793374L52.27640450742737,78.96816499046248z" style="fill:rgb(139,40,220)"/><path d="M35.50273545365114,87.06525033042551L-91.56498593996054,-139.3757825089224L30.983208477155546,91.20630124780241z" style="fill:rgb(203,77,216)"/><path d="M-57.76726399300383,-155.96288217404847L52.27640450742737,78.96816499046248L58.2698453131763,78.03581924177237z" style="fill:rgb(115,34,214)"/><path d="M30.983208477155546,91.20630124780241L-96.51664041237483,-134.2934895954771L27.292927930699378,95.84369029917002z" style="fill:rgb(220,94,208)"/><path d="M-50.88894273617601,-156.68307051279254L58.2698453131763,78.03581924177237L64.10811459651472,78.07698813545169z" style="fill:rgb(92,32,204)"/><path d="M27.292927930699378,95.84369029917002L-100.38006030623593,-128.99864586468502L24.57184509694182,100.81245815217363z" style="fill:rgb(233,112,197)"/><path d="M-44.55820584291785,-156.38518811958636L64.10811459651472,78.07698813545169L69.57720447414776,79.09783089607599z" style="fill:rgb(71,33,192)"/><path d="M74.47208858275245,81.0704536088109L-44.55820584291785,-156.38518811958636L69.57720447414776,79.09783089607599z" style="fill:rgb(51,38,177)"/><path d="M24.57184509694182,100.81245815217363L-103.00270044458146,-123.68072177271628L22.928695206982994,105.93340026794435z" style="fill:rgb(242,130,183)"/><path d="M78.6037730668509,83.93238243762067L-39.01239677873878,-155.06754257672318L74.47208858275245,81.0704536088109z" style="fill:rgb(34,46,160)"/><path d="M22.928695206982994,105.93340026794435L-104.27111664174019,-118.53493117442154L22.43630222130789,111.01824875357546z" style="fill:rgb(246,149,167)"/><path d="M-104.27111664174019,-118.53493117442154L23.12743110572535,115.87552868803913L22.43630222130789,111.01824875357546z" style="fill:rgb(246,167,149)"/><path d="M81.80655871292842,87.58695454465807L-34.46783634511071,-152.7641483737776L78.6037730668509,83.93238243762067z" style="fill:rgb(21,57,142)"/><path d="M-104.11695891430207,-113.75611976786746L24.991546950013394,120.31729310344207L23.12743110572535,115.87552868803913z" style="fill:rgb(242,183,130)"/><path d="M83.94532465862457,91.90508347788293L-31.1112606103717,-149.5457861758271L81.80655871292842,87.58695454465807z" style="fill:rgb(12,71,124)"/><path d="M-7.711509865815473,152.52297883272075L-152.1412452278177,-81.72897013817425L-14.43588235854134,143.03088282155028z" style="fill:rgb(21,57,142)"/><path d="M23.40286964521287,-167.74442074703097L129.19975366281395,86.60273405074486L126.38581309077867,75.17780926462281z" style="fill:rgb(246,167,149)"/><path d="M1.5682080738791409,160.30610517508083L-145.611800907082,-72.93120046486872L-7.711509865815473,152.52297883272075z" style="fill:rgb(34,46,160)"/><path d="M129.19975366281395,86.60273405074486L24.030049147728846,-144.33869320644885L129.07796883346913,98.95610048052741z" style="fill:rgb(246,149,167)"/><path d="M13.10033010565519,166.00459317029998L-135.77739345571237,-66.13976637484005L1.5682080738791409,160.30610517508083z" style="fill:rgb(51,38,177)"/><path d="M129.07796883346913,98.95610048052741L22.511560936439555,-140.4499011308085L128.15702446705865,102.70537212542253zM128.15702446705865,102.70537212542253L18.839359908347742,-131.04553375415938L125.93522825984007,111.75063618896402z" style="fill:rgb(242,130,183)"/><path d="M125.93522825984007,111.75063618896402L16.265785101523164,-127.04985206779168L124.14223685889387,115.47582264239662z" style="fill:rgb(233,112,197)"/><path d="M-107.4906628640764,-59.95193952999379L13.10033010565519,166.00459317029998L26.460144011659654,169.31614889011664z" style="fill:rgb(71,33,192)"/><path d="M124.14223685889387,115.47582264239662L12.662556385441121,-121.45556830971718L121.6355166233506,120.68388859697204z" style="fill:rgb(233,112,197)"/><path d="M40.68538779573338,83.56687728547136L-72.16015929932804,-151.6418376197513L-79.16476400770954,-148.20361492211745z" style="fill:rgb(162,50,222)"/><path d="M35.50273545365114,87.06525033042551L-79.16476400770954,-148.20361492211745L-85.7104207329352,-144.0669041550306z" style="fill:rgb(183,62,221)"/><path d="M46.344118968810854,80.83510323793374L-64.9429122622178,-154.26015195836382L-72.16015929932804,-151.6418376197513z" style="fill:rgb(139,40,220)"/><path d="M-91.56498593996054,-139.3757825089224L35.50273545365114,87.06525033042551L-85.7104207329352,-144.0669041550306z" style="fill:rgb(203,77,216)"/><path d="M52.27640450742737,78.96816499046248L-57.76726399300383,-155.96288217404847L-64.9429122622178,-154.26015195836382z" style="fill:rgb(115,34,214)"/><path d="M121.6355166233506,120.68388859697204L10.052927144247242,-117.40392201011623L119.82265689718501,124.45035425327326z" style="fill:rgb(233,112,197)"/><path d="M-96.51664041237483,-134.2934895954771L30.983208477155546,91.20630124780241L-91.56498593996054,-139.3757825089224z" style="fill:rgb(220,94,208)"/><path d="M58.2698453131763,78.03581924177237L-50.88894273617601,-156.68307051279254L-57.76726399300383,-155.96288217404847zM-90.09751694917928,-60.99765949538433L26.460144011659654,169.31614889011664L41.11273717761517,170.03711861927184z" style="fill:rgb(92,32,204)"/><path d="M-100.38006030623593,-128.99864586468502L27.292927930699378,95.84369029917002L-96.51664041237483,-134.2934895954771z" style="fill:rgb(233,112,197)"/><path d="M64.10811459651472,78.07698813545169L-44.55820584291785,-156.38518811958636L-50.88894273617601,-156.68307051279254z" style="fill:rgb(71,33,192)"/><path d="M119.82265689718501,124.45035425327326L-2.0385957021309182,-104.02000264249358L110.93836676042504,136.49719980272485z" style="fill:rgb(220,94,208)"/><path d="M-103.00270044458146,-123.68072177271628L24.57184509694182,100.81245815217363L-100.38006030623593,-128.99864586468502z" style="fill:rgb(242,130,183)"/><path d="M-71.48797092911313,-64.88121518581286L41.11273717761517,170.03711861927184L56.43558300876323,168.08356459704223z" style="fill:rgb(115,34,214)"/><path d="M-44.55820584291785,-156.38518811958636L74.47208858275245,81.0704536088109L-39.01239677873878,-155.06754257672318z" style="fill:rgb(51,38,177)"/><path d="M110.93836676042504,136.49719980272485L-16.953562145053052,-91.51677928646589L99.6274081247311,147.34338295561545z" style="fill:rgb(203,77,216)"/><path d="M-16.953562145053052,-91.51677928646589L86.36905550429124,156.48674089557645L99.6274081247311,147.34338295561545z" style="fill:rgb(183,62,221)"/><path d="M-104.27111664174019,-118.53493117442154L22.928695206982994,105.93340026794435L-103.00270044458146,-123.68072177271628z" style="fill:rgb(246,149,167)"/><path d="M-52.505966574471785,-71.47331776001764L56.43558300876323,168.08356459704223L71.75144183788338,163.5048036763306z" style="fill:rgb(139,40,220)"/><path d="M-34.038479566294605,-80.4917773872284L71.75144183788338,163.5048036763306L86.36905550429124,156.48674089557645z" style="fill:rgb(162,50,222)"/><path d="M-39.01239677873878,-155.06754257672318L78.6037730668509,83.93238243762067L-34.46783634511071,-152.7641483737776z" style="fill:rgb(34,46,160)"/><path d="M23.12743110572535,115.87552868803913L-104.27111664174019,-118.53493117442154L-104.11695891430207,-113.75611976786746z" style="fill:rgb(246,167,149)"/><path d="M-34.46783634511071,-152.7641483737776L81.80655871292842,87.58695454465807L-31.1112606103717,-149.5457861758271z" style="fill:rgb(21,57,142)"/><path d="M24.991546950013394,120.31729310344207L-104.11695891430207,-113.75611976786746L-102.52240346835534,-109.53193238748216z" style="fill:rgb(242,183,130)"/><path d="M-31.1112606103717,-149.5457861758271L83.94532465862457,91.90508347788293L-29.091049607207943,-145.51997138365007z" style="fill:rgb(12,71,124)"/><path d="M-152.1412452278177,-81.72897013817425L-7.711509865815473,152.52297883272075L-145.611800907082,-72.93120046486872z" style="fill:rgb(21,57,142)"/><path d="M-104.95528480349633,-139.74426510592767L-99.61934541166283,-169.46731924667682L-105.78923522119649,-165.59705018576628z" style="fill:rgb(83,212,212)"/><path d="M129.19975366281395,86.60273405074486L23.40286964521287,-167.74442074703097L25.525677678276512,-156.72991592552836z" style="fill:rgb(246,167,149)"/><path d="M-145.611800907082,-72.93120046486872L1.5682080738791409,160.30610517508083L-135.77739345571237,-66.13976637484005z" style="fill:rgb(34,46,160)"/><path d="M24.030049147728846,-144.33869320644885L129.19975366281395,86.60273405074486L25.525677678276512,-156.72991592552836z" style="fill:rgb(246,149,167)"/><path d="M-99.61934541166283,-169.46731924667682L-104.95528480349633,-139.74426510592767L-53.336370278565454,-158.47081594626607zM-110.2332086207591,-162.80942029988708L-103.86625174257402,-105.9842167311032L-105.78923522119649,-165.59705018576628zM-123.80525509474357,-152.10811818495793L-103.86625174257402,-105.9842167311032L-110.2332086207591,-162.80942029988708zM-135.45500829258393,-140.46459578868206L-103.86625174257402,-105.9842167311032L-123.80525509474357,-152.10811818495793z" style="fill:rgb(83,212,212)"/><path d="M22.511560936439555,-140.4499011308085L129.07796883346913,98.95610048052741L24.030049147728846,-144.33869320644885z" style="fill:rgb(242,130,183)"/><path d="M-135.77739345571237,-66.13976637484005L13.10033010565519,166.00459317029998L-122.92053598556413,-61.72035555209577z" style="fill:rgb(51,38,177)"/><path d="M-144.7659936792971,-128.2365809940832L-103.86625174257402,-105.9842167311032L-135.45500829258393,-140.46459578868206zM-95.18828869617904,-172.24686507833508L22.511560936439555,-140.4499011308085L-79.1457438002085,-180.1356972136825zM22.511560936439555,-140.4499011308085L-95.18828869617904,-172.24686507833508L-99.61934541166283,-169.46731924667682zM-79.1457438002085,-180.1356972136825L22.511560936439555,-140.4499011308085L-62.60187882033823,-186.22916100916046zM-72.16015929932804,-151.6418376197513L-79.64620263537007,-148.92601406277913L-82.73461808077556,-146.4513420885903zM-79.64620263537007,-148.92601406277913L-83.68929512041774,-147.45924315224738L-91.56498593996054,-139.3757825089224z" style="fill:rgb(83,212,212)"/><path d="M18.839359908347742,-131.04553375415938L128.15702446705865,102.70537212542253L22.511560936439555,-140.4499011308085z" style="fill:rgb(242,130,183)"/><path d="M-79.16476400770954,-148.20361492211745L-82.73461808077556,-146.4513420885903L-85.7104207329352,-144.0669041550306zM-83.68929512041774,-147.45924315224738L-98.46250233392725,-142.09974729315712L-101.69743174635916,-128.97602754466746zM-62.60187882033823,-186.22916100916046L22.511560936439555,-140.4499011308085L-46.07041247674942,-190.32061909460597zM-98.46250233392725,-142.09974729315712L-104.95528480349633,-139.74426510592767L-104.27111664174019,-118.53493117442154zM-103.86625174257402,-105.9842167311032L-144.7659936792971,-128.2365809940832L-149.40399198186952,-119.50721808860553zM-50.26925432726458,-157.7420997053413L-53.336370278565454,-158.47081594626607L-64.9429122622178,-154.26015195836382z" style="fill:rgb(83,212,212)"/><path d="M13.10033010565519,166.00459317029998L-107.4906628640764,-59.95193952999379L-122.92053598556413,-61.72035555209577z" style="fill:rgb(71,33,192)"/><path d="M-151.365147520595,-115.81605785401673L-153.06495074722432,-84.82073982627178L-149.40399198186952,-119.50721808860553z" style="fill:rgb(83,212,212)"/><path d="M16.265785101523164,-127.04985206779168L125.93522825984007,111.75063618896402L18.839359908347742,-131.04553375415938z" style="fill:rgb(233,112,197)"/><path d="M-47.364918459791085,-157.05205741126034L-50.26925432726458,-157.7420997053413L-57.76726399300383,-155.96288217404847zM-46.07041247674942,-190.32061909460597L22.511560936439555,-140.4499011308085L-30.07856009080208,-192.24757205452264zM-155.24296668774136,-92.11080854203118L-151.365147520595,-115.81605785401673L-154.93717327349538,-103.62554529019252zM-96.51664041237483,-134.2934895954771L-99.0522931632157,-131.69095286217356L-100.38006030623593,-128.99864586468502z" style="fill:rgb(83,212,212)"/><path d="M12.662556385441121,-121.45556830971718L124.14223685889387,115.47582264239662L16.265785101523164,-127.04985206779168z" style="fill:rgb(233,112,197)"/><path d="M-44.55820584291785,-156.38518811958636L-47.364918459791085,-157.05205741126034L-50.88894273617601,-156.68307051279254zM-99.0522931632157,-131.69095286217356L-101.69743174635916,-128.97602754466746L-103.00270044458146,-123.68072177271628zM-30.07856009080208,-192.24757205452264L22.511560936439555,-140.4499011308085L-15.161424229899215,-191.89769066281954z" style="fill:rgb(83,212,212)"/><path d="M10.052927144247242,-117.40392201011623L121.6355166233506,120.68388859697204L12.662556385441121,-121.45556830971718z" style="fill:rgb(233,112,197)"/><path d="M26.460144011659654,169.31614889011664L-90.09751694917928,-60.99765949538433L-107.4906628640764,-59.95193952999379z" style="fill:rgb(92,32,204)"/><path d="M-151.365147520595,-115.81605785401673L-155.24296668774136,-92.11080854203118L-153.06495074722432,-84.82073982627178z" style="fill:rgb(83,212,212)"/><path d="M-2.0385957021309182,-104.02000264249358L119.82265689718501,124.45035425327326L10.052927144247242,-117.40392201011623z" style="fill:rgb(220,94,208)"/><path d="M-15.161424229899215,-191.89769066281954L22.511560936439555,-140.4499011308085L-1.853254733757133,-189.21708652840766z" style="fill:rgb(83,212,212)"/><path d="M41.11273717761517,170.03711861927184L-71.48797092911313,-64.88121518581286L-90.09751694917928,-60.99765949538433z" style="fill:rgb(115,34,214)"/><path d="M-16.953562145053052,-91.51677928646589L110.93836676042504,136.49719980272485L-2.0385957021309182,-104.02000264249358z" style="fill:rgb(203,77,216)"/><path d="M-31.1112606103717,-149.5457861758271L-32.13223708746226,-151.58034490347328L-34.46783634511071,-152.7641483737776zM-149.40399198186952,-119.50721808860553L-153.06495074722432,-84.82073982627178L-84.00612399366167,-100.08650770315842z" style="fill:rgb(83,212,212)"/><path d="M56.43558300876323,168.08356459704223L-52.505966574471785,-71.47331776001764L-71.48797092911313,-64.88121518581286z" style="fill:rgb(139,40,220)"/><path d="M-1.853254733757133,-189.21708652840766L22.511560936439555,-140.4499011308085L9.325751913697768,-184.22038665414757z" style="fill:rgb(83,212,212)"/><path d="M86.36905550429124,156.48674089557645L-16.953562145053052,-91.51677928646589L-34.038479566294605,-80.4917773872284z" style="fill:rgb(183,62,221)"/><path d="M71.75144183788338,163.5048036763306L-34.038479566294605,-80.4917773872284L-52.505966574471785,-71.47331776001764z" style="fill:rgb(162,50,222)"/><path d="M-101.70239770104418,-107.35963030524238L-104.11695891430207,-113.75611976786746L-103.95480183014305,-108.72931111201287zM-99.52428485061954,-106.03513156877462L-102.52240346835534,-109.53193238748216L-101.70239770104418,-107.35963030524238zM9.325751913697768,-184.22038665414757L22.511560936439555,-140.4499011308085L17.888024912779724,-177.00158276842677zM-95.21647520261307,-103.41555996186396L-103.95480183014305,-108.72931111201287L-103.86625174257402,-105.9842167311032zM-28.052134577277535,-143.44965135807348L-29.091049607207943,-145.51997138365007L-28.508776627697664,-140.82933034226363zM-17.381213760673344,-144.10380210039327L-32.13223708746226,-151.58034490347328L-24.535117486472657,-136.4410658810337zM-24.535117486472657,-136.4410658810337L-28.052134577277535,-143.44965135807348L-30.36099679357209,-130.2008099069572zM17.888024912779724,-177.00158276842677L22.511560936439555,-140.4499011308085L23.40286964521287,-167.74442074703097zM-29.41171293510444,-135.64803376700863L-33.006892713237654,-127.3667187633634L-30.36099679357209,-130.2008099069572zM-152.1412452278177,-81.72897013817425L12.662556385441121,-121.45556830971718L-153.06495074722432,-84.82073982627178zM-83.32803507448803,-101.2453595415202L-89.74964927045941,-101.79212476015319L-86.9416148084193,-100.95824242275157zM-31.787155644776444,-130.1763250694168L-35.55932755679945,-124.63273358228405L-33.006892713237654,-127.3667187633634zM23.40286964521287,-167.74442074703097L24.030049147728846,-144.33869320644885L25.525677678276512,-156.72991592552836zM-76.20273116693421,-101.81148685722272L-86.9416148084193,-100.95824242275157L-84.00612399366167,-100.08650770315842zM12.662556385441121,-121.45556830971718L-152.1412452278177,-81.72897013817425L-145.611800907082,-72.93120046486872zM16.265785101523164,-127.04985206779168L22.511560936439555,-140.4499011308085L-39.01239677873878,-155.06754257672318zM23.40286964521287,-167.74442074703097L22.511560936439555,-140.4499011308085L24.030049147728846,-144.33869320644885zM-40.58966686099337,-119.24460063476043L-49.79598556003699,-111.67627016226285L-45.85441205731901,-113.60538747736715zM-61.01589360332285,-106.18491627813896L-68.66156141986313,-103.47850028393113L-64.80280776727689,-104.33149363440552zM-46.68093310224265,-114.23708860704086L-53.585274914302204,-109.82167544431017L-49.79598556003699,-111.67627016226285zM-45.85441205731901,-113.60538747736715L-64.80280776727689,-104.33149363440552L-51.836561311934545,-107.1977439510346zM12.662556385441121,-121.45556830971718L-17.381213760673344,-144.10380210039327L-51.836561311934545,-107.1977439510346zM12.662556385441121,-121.45556830971718L-145.611800907082,-72.93120046486872L-135.77739345571237,-66.13976637484005zM-17.381213760673344,-144.10380210039327L12.662556385441121,-121.45556830971718L16.265785101523164,-127.04985206779168zM12.662556385441121,-121.45556830971718L-135.77739345571237,-66.13976637484005L-122.92053598556413,-61.72035555209577zM22.511560936439555,-140.4499011308085L16.265785101523164,-127.04985206779168L18.839359908347742,-131.04553375415938zM12.662556385441121,-121.45556830971718L-122.92053598556413,-61.72035555209577L-107.4906628640764,-59.95193952999379zM12.662556385441121,-121.45556830971718L-107.4906628640764,-59.95193952999379L-90.09751694917928,-60.99765949538433zM12.662556385441121,-121.45556830971718L-2.0385957021309182,-104.02000264249358L10.052927144247242,-117.40392201011623zM12.662556385441121,-121.45556830971718L-90.09751694917928,-60.99765949538433L-71.48797092911313,-64.88121518581286zM12.662556385441121,-121.45556830971718L-16.953562145053052,-91.51677928646589L-2.0385957021309182,-104.02000264249358zM12.662556385441121,-121.45556830971718L-71.48797092911313,-64.88121518581286L-52.505966574471785,-71.47331776001764zM12.662556385441121,-121.45556830971718L-34.038479566294605,-80.4917773872284L-16.953562145053052,-91.51677928646589zM12.662556385441121,-121.45556830971718L-52.505966574471785,-71.47331776001764L-34.038479566294605,-80.4917773872284z" style="fill:rgb(83,212,212)"/></svg>
